<?xml version="1.0" encoding="utf-8"?>
<!-- Generator: Adobe Illustrator 18.0.0, SVG Export Plug-In . SVG Version: 6.00 Build 0)  -->
<!DOCTYPE svg PUBLIC "-//W3C//DTD SVG 1.1//EN" "http://www.w3.org/Graphics/SVG/1.1/DTD/svg11.dtd">
<svg version="1.1" id="Layer_1" xmlns="http://www.w3.org/2000/svg" xmlns:xlink="http://www.w3.org/1999/xlink" x="0px" y="0px"
	 viewBox="0 0 135.3 184.7" enable-background="new 0 0 135.3 184.7" xml:space="preserve">
<g>
	<path fill="#808080" d="M82.4,173.3c0,0-43.8-3.1-62.3-25.3c-1.4-2.4-6.5-10,2.9-21.3c3.9-3.1,9.7-0.6,11.8,6.3
		c-1.8-11.8-7-12.4-12.4-8.1C-19.2,164,92.2,180,92.2,180"/>
	<path fill="#808080" d="M101.2,18c0,0,2.6,0.3,2.8-0.2c1.5-3.3,7-15.5,8.4-12.4c3.5,7.6,0.6,21.6,5.4,31.2
		c-31,19-48.6,56.2-50.1,88.7c0,66.7,49.5,67.1,49.5,0c0-62.3-50.6-88.1-50.6-88.1c4.3-4.5,3.3-22,5.1-31.7
		c0.6-3.6,7.2,9.2,8.8,12.4c0.2,0.5,2.2,0.1,2.2,0.1c-1.9,0.5-3.4,1.4-4.7,2.5c0,0,1.7-1.5,1.4-2C78,15.3,72.7,4.1,72.1,7.7
		c-1.8,9.8,2.2,21.2-1.1,29c0,0,47.9,25.7,48,89.2c0.1,71-53,73.1-53.1,2.6c1.6-33.1,17-71.2,47.5-92.6c-3-8.2,2-20.9-1.5-28.6
		c-1.5-3.2-5.9,8.2-7.1,11.2c-0.2,0.4,1,1.3,1,1.3C104.7,19,103.1,18.4,101.2,18z"/>
</g>
</svg>
