<?xml version="1.0" encoding="utf-8"?>
<!-- Generator: Adobe Illustrator 18.0.0, SVG Export Plug-In . SVG Version: 6.00 Build 0)  -->
<!DOCTYPE svg PUBLIC "-//W3C//DTD SVG 1.1//EN" "http://www.w3.org/Graphics/SVG/1.1/DTD/svg11.dtd">
<svg version="1.1" id="Layer_1" xmlns="http://www.w3.org/2000/svg" xmlns:xlink="http://www.w3.org/1999/xlink" x="0px" y="0px"
	 viewBox="0 0 618.3 184.7" enable-background="new 0 0 618.3 184.7" xml:space="preserve">
<g>
	<path fill="#999999" d="M80.9,175.6c0,0-45.2-3.2-64.3-26.1c-1.5-2.5-6.7-10.3,2.9-22c4.1-3.2,10-0.6,12.2,6.5
		c-1.9-12.2-7.3-12.8-12.8-8.4c-42.8,40.4,72.1,56.9,72.1,56.9"/>
	<path fill="#999999" d="M100.3,15.4c0,0,2.6,0.3,2.9-0.2c1.5-3.4,7.2-16,8.7-12.8c3.6,7.8,0.6,22.2,5.6,32.1
		c-32,19.6-50.1,58-51.7,91.4c0,68.8,51.1,69.2,51.1,0c0-64.3-52.2-90.9-52.2-90.9c4.4-4.7,3.4-22.7,5.2-32.7
		c0.7-3.7,7.4,9.5,9.1,12.8c0.2,0.5,2.3,0.1,2.3,0.1c-2,0.5-3.5,1.5-4.8,2.6c0,0,1.7-1.6,1.5-2.1C76.4,12.6,71,1.1,70.3,4.8
		c-1.8,10.2,2.2,21.9-1.1,30c0,0,49.4,26.5,49.5,92c0.1,73.2-54.7,75.4-54.8,2.7C65.5,95.3,81.5,56,113,34
		c-3.1-8.5,2.1-21.5-1.6-29.5c-1.5-3.3-6.1,8.4-7.3,11.5c-0.2,0.5,1,1.4,1,1.4C103.9,16.4,102.3,15.8,100.3,15.4z"/>
</g>
<g>
	<path fill="#808080" d="M154.7,118.4V77.2h11.8c2.3,0,4.4,0.2,6.1,0.7c1.7,0.5,3.1,1.1,4.3,2.1s2,2,2.5,3.3
		c0.6,1.3,0.8,2.8,0.8,4.4c0,1.1-0.2,2.1-0.6,3.1s-0.9,1.9-1.6,2.8c-0.7,0.9-1.6,1.6-2.6,2.2c-1,0.6-2.2,1.1-3.6,1.4
		c3.2,0.5,5.7,1.6,7.5,3.2c1.7,1.7,2.6,3.9,2.6,6.6c0,1.7-0.3,3.3-0.9,4.7c-0.6,1.4-1.5,2.6-2.7,3.6s-2.6,1.7-4.4,2.2
		c-1.7,0.5-3.7,0.8-5.9,0.8H154.7z M157.7,96.4h8.9c1.9,0,3.5-0.2,4.9-0.7c1.3-0.5,2.5-1.1,3.3-1.9c0.9-0.8,1.5-1.7,1.9-2.7
		c0.4-1,0.6-2,0.6-3.1c0-2.8-0.9-4.9-2.6-6.3s-4.5-2.1-8.1-2.1h-8.9V96.4z M157.7,98.6V116H168c3.6,0,6.4-0.8,8.2-2.3
		c1.8-1.6,2.8-3.8,2.8-6.6c0-1.3-0.2-2.5-0.7-3.5c-0.5-1-1.2-1.9-2.1-2.6c-0.9-0.7-2.1-1.3-3.4-1.7c-1.4-0.4-2.9-0.6-4.6-0.6H157.7z
		"/>
	<path fill="#808080" d="M243.3,97.8c0,3.2-0.5,6.1-1.4,8.7c-1,2.6-2.3,4.8-4,6.6c-1.7,1.8-3.8,3.3-6.2,4.2c-2.4,1-5.1,1.5-8,1.5
		c-2.9,0-5.5-0.5-7.9-1.5c-2.4-1-4.5-2.4-6.2-4.2c-1.7-1.8-3.1-4-4-6.6s-1.4-5.5-1.4-8.7c0-3.2,0.5-6,1.4-8.6s2.3-4.8,4-6.6
		c1.7-1.8,3.8-3.3,6.2-4.3c2.4-1,5.1-1.5,7.9-1.5c2.9,0,5.6,0.5,8,1.5c2.4,1,4.5,2.4,6.2,4.3c1.7,1.8,3.1,4.1,4,6.7
		C242.8,91.7,243.3,94.6,243.3,97.8z M240.2,97.8c0-2.9-0.4-5.5-1.2-7.7c-0.8-2.3-1.9-4.2-3.4-5.8c-1.4-1.6-3.2-2.8-5.2-3.7
		c-2-0.8-4.3-1.3-6.8-1.3c-2.4,0-4.7,0.4-6.7,1.3c-2,0.8-3.8,2.1-5.2,3.7c-1.5,1.6-2.6,3.5-3.4,5.8c-0.8,2.3-1.2,4.9-1.2,7.7
		c0,2.9,0.4,5.5,1.2,7.8c0.8,2.3,1.9,4.2,3.4,5.8c1.5,1.6,3.2,2.8,5.2,3.6c2,0.8,4.3,1.3,6.7,1.3c2.5,0,4.7-0.4,6.8-1.3
		c2-0.8,3.8-2,5.2-3.6c1.4-1.6,2.6-3.5,3.4-5.8C239.8,103.2,240.2,100.6,240.2,97.8z"/>
	<path fill="#808080" d="M299.3,118.4h-3V98.6h-25.8v19.7h-3V77.2h3v19.2h25.8V77.2h3V118.4z"/>
	<path fill="#808080" d="M362.8,97.8c0,3.2-0.5,6.1-1.4,8.7c-1,2.6-2.3,4.8-4,6.6c-1.7,1.8-3.8,3.3-6.2,4.2c-2.4,1-5.1,1.5-8,1.5
		c-2.9,0-5.5-0.5-7.9-1.5c-2.4-1-4.5-2.4-6.2-4.2s-3.1-4-4-6.6c-1-2.6-1.4-5.5-1.4-8.7c0-3.2,0.5-6,1.4-8.6c1-2.6,2.3-4.8,4-6.6
		s3.8-3.3,6.2-4.3c2.4-1,5.1-1.5,7.9-1.5c2.9,0,5.6,0.5,8,1.5c2.4,1,4.5,2.4,6.2,4.3c1.7,1.8,3.1,4.1,4,6.7
		C362.4,91.7,362.8,94.6,362.8,97.8z M359.8,97.8c0-2.9-0.4-5.5-1.2-7.7c-0.8-2.3-1.9-4.2-3.4-5.8c-1.4-1.6-3.2-2.8-5.2-3.7
		c-2-0.8-4.3-1.3-6.8-1.3c-2.4,0-4.7,0.4-6.7,1.3c-2,0.8-3.8,2.1-5.2,3.7c-1.5,1.6-2.6,3.5-3.4,5.8c-0.8,2.3-1.2,4.9-1.2,7.7
		c0,2.9,0.4,5.5,1.2,7.8s1.9,4.2,3.4,5.8c1.5,1.6,3.2,2.8,5.2,3.6c2,0.8,4.3,1.3,6.7,1.3c2.5,0,4.7-0.4,6.8-1.3c2-0.8,3.8-2,5.2-3.6
		c1.4-1.6,2.6-3.5,3.4-5.8S359.8,100.6,359.8,97.8z"/>
	<path fill="#808080" d="M390.9,96.2h2.4c0.4,0,0.7,0,1,0c0.3,0,0.5-0.1,0.7-0.2c0.2-0.1,0.4-0.2,0.6-0.3c0.2-0.1,0.4-0.3,0.6-0.5
		L412.9,78c0.3-0.3,0.6-0.5,0.9-0.7c0.3-0.1,0.6-0.2,1-0.2h2.4l-18,18.5c-0.4,0.4-0.7,0.7-1,0.9c-0.3,0.2-0.6,0.4-0.9,0.5
		c0.4,0.1,0.8,0.3,1.1,0.5c0.3,0.2,0.6,0.6,1,0.9l19,19.8h-2.4c-0.5,0-0.9-0.1-1.1-0.2s-0.4-0.3-0.7-0.6l-17.4-17.8
		c-0.2-0.2-0.4-0.4-0.6-0.6s-0.4-0.3-0.6-0.4c-0.2-0.1-0.5-0.2-0.8-0.2c-0.3,0-0.7-0.1-1.2-0.1h-2.6v19.9h-3V77.1h3V96.2z"/>
	<path fill="#808080" d="M444.1,118.4h-3V77.2h3V118.4z"/>
	<path fill="#808080" d="M498.9,77.2v2.5h-14.5v38.7h-3V79.7h-14.6v-2.5H498.9z"/>
	<path fill="#808080" d="M547.5,77.2v2.5H533v38.7h-3V79.7h-14.6v-2.5H547.5z"/>
	<path fill="#808080" d="M582,101.4v17h-3v-17l-15.2-24.2h2.6c0.3,0,0.5,0.1,0.7,0.2c0.2,0.1,0.3,0.3,0.5,0.5l11.8,18.9
		c0.3,0.4,0.5,0.9,0.7,1.3s0.4,0.8,0.5,1.3c0.2-0.4,0.3-0.8,0.5-1.3s0.4-0.8,0.7-1.3l11.8-18.9c0.1-0.2,0.3-0.4,0.4-0.5
		c0.2-0.1,0.4-0.2,0.7-0.2h2.6L582,101.4z"/>
</g>
</svg>
