<?xml version="1.0" encoding="utf-8"?>
<!-- Generator: Adobe Illustrator 18.0.0, SVG Export Plug-In . SVG Version: 6.00 Build 0)  -->
<!DOCTYPE svg PUBLIC "-//W3C//DTD SVG 1.1//EN" "http://www.w3.org/Graphics/SVG/1.1/DTD/svg11.dtd">
<svg version="1.1" id="Layer_1" xmlns="http://www.w3.org/2000/svg" xmlns:xlink="http://www.w3.org/1999/xlink" x="0px" y="0px"
	 viewBox="0 0 618.3 184.7" enable-background="new 0 0 618.3 184.7" xml:space="preserve">
<g>
	<path fill="#999999" d="M80.9,175.6c0,0-45.2-3.2-64.3-26.1c-1.5-2.5-6.7-10.3,2.9-22c4.1-3.2,10-0.6,12.2,6.5
		c-1.9-12.2-7.3-12.8-12.8-8.4c-42.8,40.4,72.1,56.9,72.1,56.9"/>
	<path fill="#999999" d="M100.3,15.4c0,0,2.6,0.3,2.9-0.2c1.5-3.4,7.2-16,8.7-12.8c3.6,7.8,0.6,22.2,5.6,32.1
		c-32,19.6-50.1,58-51.7,91.4c0,68.8,51.1,69.2,51.1,0c0-64.3-52.2-90.9-52.2-90.9c4.4-4.7,3.4-22.7,5.2-32.7
		c0.7-3.7,7.4,9.5,9.1,12.8c0.2,0.5,2.3,0.1,2.3,0.1c-2,0.5-3.5,1.5-4.8,2.6c0,0,1.7-1.6,1.5-2.1C76.4,12.6,71,1.1,70.3,4.8
		c-1.8,10.2,2.2,21.9-1.1,30c0,0,49.4,26.5,49.5,92c0.1,73.2-54.7,75.4-54.8,2.7C65.5,95.3,81.5,56,113,34
		c-3.1-8.5,2.1-21.5-1.6-29.5c-1.5-3.3-6.1,8.4-7.3,11.5c-0.2,0.5,1,1.4,1,1.4C103.9,16.4,102.3,15.8,100.3,15.4z"/>
</g>
<text transform="matrix(1 0 0 1 148.5789 118.363)" fill="#808080" font-family="'Lato-Light'" font-size="58.2182" letter-spacing="14">BOHOKITTY</text>
</svg>
