<?xml version="1.0" encoding="utf-8"?>
<!-- Generator: Adobe Illustrator 18.0.0, SVG Export Plug-In . SVG Version: 6.00 Build 0)  -->
<!DOCTYPE svg PUBLIC "-//W3C//DTD SVG 1.1//EN" "http://www.w3.org/Graphics/SVG/1.1/DTD/svg11.dtd">
<svg version="1.1" id="Layer_1" xmlns="http://www.w3.org/2000/svg" xmlns:xlink="http://www.w3.org/1999/xlink" x="0px" y="0px"
	 viewBox="0 0 616.1 408" enable-background="new 0 0 616.1 408" xml:space="preserve">
<text transform="matrix(1 0 0 1 -364.0828 -48.3531)" font-family="'EuphoriaScript-Regular'" font-size="112.5491">kitty</text>
<text transform="matrix(1 0 0 1 -368.9846 72.6251)" font-family="'Italianno-Regular'" font-size="112.5491">kitty</text>
<text transform="matrix(1 0 0 1 -344.6995 181.889)" font-family="'LoversQuarrel-Regular'" font-size="112.5491">kitty</text>
<text transform="matrix(1 0 0 1 -561.5417 193.8023)" font-family="'Zeyada'" font-size="112.5491">kitty</text>
<text transform="matrix(1 0 0 1 -356.7354 295.1696)" font-family="'MonsieurLaDoulaise-Regular'" font-size="112.5491">kitty</text>
<text transform="matrix(1 0 0 1 -377.5266 440.2074)" font-family="'PinyonScript'" font-size="112.5491">kitty</text>
<text transform="matrix(1 0 0 1 -346.9421 -166.261)" font-family="'Qwigley-Regular'" font-size="112.5491">kitty</text>
<text transform="matrix(1 0 0 1 -557.6332 -166.2613)" font-family="'Ruthie-Regular'" font-size="112.5491">kitty</text>
<text transform="matrix(1 0 0 1 -574.6369 -39.666)" font-family="'Yellowtail'" font-size="112.5491">kitty</text>
<text transform="matrix(1 0 0 1 -565.4759 72.6249)" font-family="'Yesteryear-Regular'" font-size="112.5491">kitty</text>
<g>
	<path fill="#BFC0B5" d="M420.8,202.4c3.8,0,6.4,1.3,7.5,3.8c0.4,0.7,0.3,1.2-0.3,1.4c-0.7,0.2-1.3-0.1-1.9-0.9
		c-0.6-0.8-2.1-1-4.4-0.6c-5.5,1-11.6,4.8-18.3,11.4c-6.7,6.6-12.1,12.5-16.1,17.6c3.4,6.2,8.5,12.4,15.3,18.6
		c6.8,6.2,12.8,9.9,18,11.1c0.9,0.1,0.7,0.4-0.7,0.9c-2.5,0.7-4.8,1.1-6.8,1.1c-2,0-3.4-0.2-4.3-0.6c-0.9-0.4-1.8-0.7-2.7-1
		c-0.9-0.3-1.5-0.5-1.9-0.7c-0.4-0.1-0.9-0.4-1.7-0.9c-0.7-0.4-1.4-0.9-2-1.3c-0.7-0.7-2.1-2.3-4.2-4.7c-4.6-5.9-8.5-12.2-11.8-18.9
		c-5.3,8-8.7,16.2-10,24.6v1.1c0,1.2-0.4,1.8-1.1,1.8c-0.7,0-1.9-0.8-3.6-2.6c-1.6-1.7-2.6-2.6-2.9-2.8c0-4.7,1.3-13.8,3.9-27.3
		c2.6-13.5,5.7-26.2,9.4-38.2c6.5-21.3,15.8-35.1,28-41.3c3.7-1.9,7.4-2.9,11.2-2.9c3.8,0,7.1,2.2,10.1,6.7c0.7,1,1.1,1.9,1.1,2.4
		c0,0.9-0.8,0.8-2.4-0.2c-3-2.7-6.8-4-11.5-4c-0.2,0-0.4,0-0.7,0c-6.5,0-12.8,5.7-18.9,17.1c-10.8,20.3-18,45.9-21.7,76.8
		c1.6-5.8,7.3-18.3,9.1-20.6C384.7,229.7,407.7,202.4,420.8,202.4z"/>
	<path fill="#BFC0B5" d="M425.9,254.3c0,4.4,1.3,6.7,4,6.7c1.5,0,5.1-2.4,11-7.2c5.8-4.8,9-7.4,9.4-7.9c0.4-0.4,0.8-0.6,1.1-0.3
		c0.3,0.2,0.4,0.4,0.4,0.7c0,0.2-0.1,0.5-0.2,0.8c-2.2,3.7-6.9,8.1-14,13.3c-4.7,3.8-8.7,5.8-12,5.8c-5,0-7.5-4.3-7.5-12.9
		c0-1.6,0.1-4,0.4-7c0.3-3,2.7-12.4,7.1-28.1c0.3-1.2,2-1.8,5-1.8c3,0,4.5,0.9,4.5,2.6c0,1.7-0.6,3.9-1.7,6.7
		c-1.1,2.7-2.4,4.3-3.9,4.5c-0.7,0.1-1.6,3.8-2.4,11.1C426.4,248.5,425.9,252.9,425.9,254.3z M443,198c1,0,1.6,0.3,1.6,1
		c0,0.7-0.9,2-2.7,4.1c-3.8,4.7-7.6,5.6-11.3,2.7c-0.6-0.4-0.7-0.9-0.2-1.3C435.5,200.1,439.7,198,443,198z"/>
	<path fill="#BFC0B5" d="M476.3,212.4c10.8,0,57.7-0.2,57.7,1.1c0,0.3-7.1,2.1-10.7,2.5c-11.4,1.2-53.8,1.4-54.8,1.7
		c-7.2,17.8-10.9,30.4-10.9,37.9c0,2.4,0.5,4.1,1.4,5.2c1,1.1,2.1,1.6,3.3,1.4c1.3-0.1,2.3-0.3,3.1-0.4c0.8-0.1,2.1-0.6,3.8-1.4
		c1.7-0.8,3.1-1.4,4.1-1.9c2.5-1.2,7.3-4.5,14.4-10c2.5-1.8,3.8-2.1,4-1.1c0,1.9-4,5.7-11.9,11.3c-7.9,5.6-14.4,8.4-19.4,8.4
		c-0.1,0-0.3,0-0.4,0c-4.6-0.3-7.5-1.6-8.9-3.8c-0.6-1.2-0.9-3-0.9-5.3c0-2.4,0.3-5.2,0.8-8.5c0.5-3.3,1.7-7.6,3.4-12.8
		c1.8-5.2,3.4-9.6,4.8-13.3c1.4-3.7,2-5.5,1.9-5.5c-1.6,0-7.1,0.7-16.4,2c-0.7,0.1-1.1-0.6-1.1-2.3c0-1.7,0.8-2.8,2.3-3.4
		c1.6-0.6,7.1-1.1,16.8-1.6c4.6-15.7,8-25.8,10.2-30.4c0.4-1,1.1-1.6,2-1.6c0.9,0,2.1,1,3.8,3.1c1.6,2.1,2.4,3.6,2.4,4.7
		c0,1-0.1,1.9-0.4,2.4l-10.9,21.7C471.9,212.5,474.1,212.4,476.3,212.4z"/>
	<path fill="#BFC0B5" d="M505.6,217.7c-7.2,17.8-10.9,30.4-10.9,37.9c0,2.4,0.8,3.9,1.4,5.2c3.8,8.4,24.9-26.9,24.8-31.1
		c0,0,1.5,2.2,1.3,2.6c-2.2,4.8-14.2,37-24.7,34.8c-0.1,0-0.3,0-0.4,0c-4.6-0.3-7.5-1.6-8.9-3.8c-0.6-1.2-0.9-3-0.9-5.3
		c0-2.4,0.3-5.2,0.8-8.5c0.5-3.3,1.7-7.6,3.4-12.8c1.8-5.2,3.4-9.6,4.8-13.3c1.4-3.7,11.4-36.7,13.6-41.3c0.4-1,1.1-1.6,2-1.6
		c0.9,0,2.1,1,3.8,3.1c1.6,2.1,2.4,3.6,2.4,4.7c0,1-0.1,1.9-0.4,2.4C517.8,190.9,506.6,217.4,505.6,217.7z"/>
	<path fill="#BFC0B5" d="M568.1,220c0,4.1-1.3,12.1-4,23.7c-2.7,11.7-5,19.7-6.9,24c4.6-1,7.1-2.8,7.5-5.3c0.1-0.9,0.5-1.6,1-2
		c0.5-0.4,1-0.5,1.3-0.1c0.4,0.4,0.5,1.1,0.3,2.3c-0.6,4.3-4.6,7.3-12,9.1c-4.4,12.3-10.6,24.3-18.6,36.2
		c-14.5,21.3-30.3,33.4-47.5,36.2c-1.8,0.3-4.2,0.4-7.4,0.4c-3.2,0-6.8-1-10.8-2.9c-5.6-2.8-9.5-7.3-11.5-13.5
		c-0.7-2.5-1.1-5.1-1.1-7.9c0-2.7,0.7-5.7,2-8.8c2.2-5.3,6.1-9.8,11.5-13.5c13.3-9,39.1-18.5,77.4-28.4c2.5-5.9,5.5-19.3,8.9-40.2
		c-6.1,10.9-12.5,20.4-19.3,28.4c-0.9,3.1-2.7,5.7-5.5,7.7c-2.8,2-4.1,1.5-4-1.4c0-0.7,0.6-3.8,1.8-9.2c1.2-5.4,1.8-11,1.8-16.9
		c0-5.8-1.7-7.8-4.7-8.8c-3.5-1.1-7.2,4.2-6.5,4.6c-4.1-3.8,2.4-9,9.8-9.9c2.6-0.2,3.9,0.5,5.5,1.4c1.6,1,2.6,3.1,3,6.5
		c0.4,3.4,0.6,6.1,0.6,8.2c0,2.1-0.2,4.5-0.6,7.2c-0.4,2.7-0.7,4.3-1,4.5c0,1,6.6-7.7,19.7-26.2c0.7-4.9,2.8-7.3,6.2-7.3
		C567.2,218.2,568.1,218.8,568.1,220z M509.1,286.4c-16.1,6.6-27.1,11.9-33.1,15.9c-5.9,4-9.9,7.6-12,10.8c-2.1,3.2-3.1,5.7-3.1,7.7
		c0,7.7,4,12.8,12,15.3c4.1,1.2,7.7,1.8,10.6,1.8c3,0,6-0.2,9.1-0.6c3.1-0.4,6.6-1.4,10.5-3c3.9-1.6,7.3-3.4,10.2-5.2
		c2.9-1.9,5.8-4.4,8.7-7.8c2.9-3.3,5.2-6.2,7-8.5c1.8-2.4,3.8-5.7,6-10.1c2.2-4.4,3.8-7.6,4.9-9.8c1-2.1,2.5-5.6,4.4-10.4
		c1.9-4.8,3.3-8,4-9.4C538.3,275.3,525.2,279.8,509.1,286.4z"/>
</g>
<g>
	<path fill="#BFC0B5" d="M88,207.9c4.6,0,6.9,2.7,6.9,8c0,3.1-0.7,7.7-2,13.8c-1.3,6.1-4,12.3-8,18.6c-4,6.3-9.8,11.2-17.4,14.6
		c-4.6,1.9-8.5,2.9-11.6,2.9c-9,0-13.6-3.2-13.6-9.6c0-2.8,1.1-5.3,3.3-7.3c1,9.6,4.7,14.5,10.9,14.5c0.4,0,0.9,0,1.3,0
		c3.7-0.6,7.7-2.9,11.9-7c4.2-4.1,7.9-9.4,11-16c3.1-6.6,4.7-12.9,4.7-18.8c0-5-0.9-7.1-2.7-6.2c-6.8,3.4-12.7,8.9-17.6,16.6
		c-4.9,7.6-7.4,15.2-7.6,22.8c0,0.9-0.4,1.3-1.3,1.3c-0.9,0-2.1-0.8-3.6-2.3c-1.5-1.6-2.4-2.4-2.7-2.6c0-7,1.8-17.9,5.3-32.8
		c3.6-14.9,8.5-28.4,14.8-40.5c6.3-12.1,13.4-20.6,21.2-25.5c0.7-0.4,2.5-1,5.3-1.8c2.8-0.7,4.6-1.1,5.3-1.1c0.7,0,1.2,0.1,1.3,0.2
		c4.2,1,7.3,3.2,9.3,6.4c0.7,1,1.1,1.8,1.1,2.2s-0.3,0.7-0.9,0.7c-0.6,0-1.1-0.2-1.6-0.7c-3.3-2.7-7.1-4-11.6-4c-0.2,0-0.4,0-0.7,0
		c-7,0.1-15.2,11.5-24.8,34C64.9,210.9,59.8,227,59,236.6c2.1-3.6,6-8.5,11.8-14.9c5.8-6.4,9.5-10.3,11.2-11.7
		C83.8,208.6,85.7,207.9,88,207.9z"/>
	<path fill="#BFC0B5" d="M148.1,222.6c0,0-5.9,3.8-7,3.2c0,0.3,0.2,3,0.2,4.3c0,1.3-0.7,4.2-2.1,8.7c-1.4,4.4-3.5,9.1-6.3,14
		c-2.8,4.9-5.9,8.5-9.1,10.7c-3.3,2.2-5.7,3.3-7.2,3.3c-1.6,0-3.2-0.2-4.9-0.7c-1.7-0.4-3.6-2-5.7-4.7c-2.4-2.7-3.6-6.4-3.6-11.2
		c0-4.8,0.7-9.7,2.2-14.8c5.5-16.6,12.2-25.3,20.2-26c1-1.2,2.3-1.8,3.9-1.8c1.6,0,3.6,0.7,6.1,2.2c4.4,2.8,6.9,6.3,7.3,10.5
		c-2.4,4.4,0.4,2.5,2.4,0.9C145.5,220.7,145.3,223.1,148.1,222.6z M119.1,225.7c-3,5.2-5.2,10.4-6.6,15.6c-1.4,5.2-2.1,9.6-2.1,13.2
		c0,3.6,1.3,6.1,4,7.5c0.7,0.3,1.6,0.4,2.4,0.4c3.6,0,7.6-3.5,12-10.5c2.5-4,4.5-8.5,6-13.3c1.5-4.9,2.2-8,2.2-9.3
		c0-1.3-0.1-2.2-0.2-2.7c-2.8-0.4-5-1.5-6.7-3.1c-1.6-1.6-2.5-3.1-2.7-4.4l-0.2-2C124.8,217.6,122.1,220.5,119.1,225.7z"/>
	<path fill="#BFC0B5" d="M184.9,244.6c0,9.3,1.6,14,4.9,14c4.4,0,10.5-4.8,18.2-14.5c1.5-1.8,2.3-2.8,2.6-3c0.2-0.2,0.5,0.1,0.8,1
		l0.2,0.4c-1.2,3-4.8,7.4-10.8,13.3c-6,5.9-11.1,8.9-15.2,8.9c-1.5,0-2.9-0.4-4.2-1.1c-3.7-1.8-5.6-8.3-5.6-19.6
		c0-1.8,0.1-4.3,0.4-7.5c0.3-3.2,0.6-4.9,0.9-5.2c0-0.1-0.2,0-0.6,0.3c-0.4,0.4-1,1-1.8,2c-0.8,1-1.7,2-2.6,3c-0.9,1-1.9,2.4-3.1,4
		c-1.2,1.6-2.3,3-3.3,4.2c-2.7,3-4.7,5.6-6.2,8c-0.4,5.3-2.4,9-5.8,11.1c-0.7,0.4-1.3,0.7-1.7,0.7c-0.4,0-0.6-1.4-0.6-4.1
		c0-2.7,1-9.8,2.9-21.2c1.9-11.4,4.7-21.3,6.3-25.6c-4.6,1.2-9.9,6.1-10.8,7c-6.8,6.7-7.9,2.2-6.4,1c2.1-1.8,14.2-11.6,18.7-12.9
		c3.9-12.6,8.5-22.1,15.9-34.4c7.4-12.3,15.6-21.9,24.7-28.7c9-7.1,18.2-10.7,27.6-10.7c4,0,7.9,0.8,11.8,2.4
		c5.8,2.5,9.9,6.7,12.2,12.7c1,2.7,1.6,5.4,1.6,8.2c0,8.6-4.2,16.1-12.7,22.5c-5.9,4.6-13.9,9.2-23.8,13.7c-9.9,4.5-17.1,6.9-23.4,9
		c-6.3,2.2-16.5,4.2-28.7,8c-2.4,6.4-4.9,20.2-7.6,37.6c2.1-3.1,5.3-7.5,9.8-13.2c4.4-5.7,7.3-9.5,8.7-11.2c0.7-3.3,2.5-5.9,5.2-7.9
		c2.7-2,4.1-1.6,4.1,1.2c0,0.7-0.5,4.2-1.4,10.2C185.4,234.5,184.9,239.9,184.9,244.6z M252.5,152.8c-2.8-7.4-9.9-11.1-21.1-11.1
		c-10.5,0-20.8,3.6-30.9,10.9c-4.4,3.1-9.4,8.8-14.9,16.9c-3.1,4.7-5.7,9.9-7.9,15.5c-2.2,5.6-4.1,10.8-5.8,15.6
		c-1.7,4.8-1.9,6-2.4,7.5c9.9-2.8,21.8-5.9,37.6-13.2c15.8-7.3,27.5-13.9,35-19.8c7.6-5.9,11.3-11.6,11.3-17.2
		C253.4,156,253.1,154.4,252.5,152.8z"/>
	<path fill="#BFC0B5" d="M266.6,222.7c-1.4,1.6-1,3.4-1,3.4c-3.6,1.6-7.2,2.4-10.9,2.4c-3.7,0-6.2-0.3-7.3-0.9c0,0.3,0,1.1,0,2.4
		c0,1.3-0.7,4.2-2.1,8.7c-1.4,4.4-3.5,9.1-6.3,14c-2.8,4.9-5.9,8.5-9.1,10.7c-3.3,2.2-5.7,3.3-7.2,3.3c-1.6,0-3.2-0.2-4.9-0.7
		c-1.7-0.4-3.6-2-5.7-4.7c-2.4-2.7-3.6-6.4-3.6-11.2c0-4.8,0.7-9.7,2.2-14.8c5.5-16.6,12.2-25.3,20.2-26c1-1.2,2.3-1.8,3.9-1.8
		c1.6,0,3.6,0.7,6.1,2.2c4.4,2.8,6.9,6.3,7.3,10.5C249,225.9,265.6,224.9,266.6,222.7z M225.2,225.7c-3,5.2-5.2,10.4-6.6,15.6
		c-1.4,5.2-2.1,9.6-2.1,13.2c0,3.6,1.3,6.1,4,7.5c0.7,0.3,1.6,0.4,2.4,0.4c3.6,0,7.6-3.5,12-10.5c2.5-4,4.5-8.5,6-13.3
		c1.5-4.9,2.2-8,2.2-9.3c0-1.3-0.1-2.2-0.2-2.7c-2.8-0.4-5-1.5-6.7-3.1c-1.6-1.6-2.5-3.1-2.7-4.4l-0.2-2
		C230.9,217.6,228.2,220.5,225.2,225.7z"/>
</g>
<text transform="matrix(1 0 0 1 -726.9149 -166.2608)" font-family="'LoversQuarrel-Regular'" font-size="141.3423">kitty</text>
<g>
	<path fill="#BFC0B5" d="M285.8,384.5c0,0-90.1-1-128.1-46.7c-2.9-5-19.1-27.3,5.9-49.1c8.1-6.4,20-1.2,24.3,12.9
		c-3.7-24.3-14.5-25.5-25.5-16.7c-85.4,80.6,143.7,110.8,143.7,110.8"/>
	<path fill="#BFC0B5" d="M324.6,65.1c0,0,5.3,0.6,5.7-0.4c3-6.8,14.4-31.8,17.3-25.4c7.2,15.6,1.3,44.4,11.1,64.1
		c-63.8,39.2-100,115.6-103.1,182.4c0,137.2,101.9,138,101.9,0c0-128.2-104.1-181.3-104.1-181.3c8.8-9.4,6.9-45.3,10.4-65.2
		c1.3-7.4,14.8,18.9,18.2,25.5c0.5,0.9,4.5,0.2,4.5,0.2c-3.9,1.1-7,3-9.6,5.2c0,0,3.5-3.1,3-4.2c-3-6.6-13.9-29.5-15.2-22.1
		c-3.6,20.2,1.8,43.6-4.9,59.7c0,0,98.5,52.8,98.7,183.5c0.2,146-103.7,145.1-103.9,0c3.2-68.1,35-141.1,97.8-185.1
		c-6.3-16.9,1.5-42.9-5.8-58.8c-3-6.6-12.2,16.8-14.6,23c-0.3,0.9,2,2.7,2,2.7C331.7,67.1,328.4,65.8,324.6,65.1z"/>
</g>
<g>
	<path fill="#00FF00" d="M1085.1-103.2c7-11.7,14.7-17.5,23-17.5c2.4,0,4,0.8,4.8,2.4c0.3,0.5,0.2,0.8-0.2,0.9
		c-0.4,0.1-0.8,0-1.2-0.6c-0.4-0.5-1.3-0.6-2.8-0.4c-3.5,0.7-7.4,3.1-11.7,7.3c-4.3,4.2-7.7,7.9-10.2,11.2c2.2,4,5.4,7.9,9.8,11.9
		c4.3,4,8.1,6.3,11.4,7.1c0.6,0.1,0.4,0.3-0.4,0.6c-1.6,0.5-3,0.7-4.3,0.7c-1.3,0-2.2-0.1-2.8-0.4c-0.6-0.2-1.1-0.4-1.7-0.6
		c-0.6-0.2-1-0.3-1.2-0.4c-0.2-0.1-0.6-0.3-1.1-0.6c-0.5-0.3-0.9-0.6-1.3-0.8c-0.5-0.5-1.4-1.5-2.7-3c-2.9-3.8-5.4-7.8-7.5-12
		c-3.4,5.1-5.5,10.3-6.4,15.7v0.7c0,0.8-0.2,1.1-0.7,1.1c-0.5,0-1.2-0.5-2.3-1.6c-1-1.1-1.7-1.7-1.8-1.8c0-3,0.8-8.8,2.5-17.4
		c1.6-8.6,3.7-16.7,6-24.3c4.1-13.6,10.1-22.3,17.8-26.3c2.4-1.2,4.7-1.8,7.1-1.8c2.4,0,4.5,1.4,6.4,4.2c0.5,0.7,0.7,1.2,0.7,1.6
		c0,0.6-0.5,0.5-1.6-0.1c-1.9-1.7-4.3-2.5-7.3-2.5c-0.1,0-0.2,0-0.4,0c-4.1,0-8.2,3.6-12,10.9c-6.9,12.9-11.5,29.2-13.9,48.9
		c1.2-4,2.7-7.4,4.4-10.3c-0.4-0.8-0.6-1.3-0.6-1.7c-0.5-2.1-0.4-3.2,0.1-3.4c0.5-0.2,0.9,0,1.2,0.6c0.3,0.6,0.5,1.1,0.7,1.7V-103.2
		z"/>
	<path fill="#00FF00" d="M1111.4-87.7c0,2.8,0.8,4.2,2.5,4.2c0.9,0,3.3-1.5,7-4.6c3.7-3.1,5.7-4.7,6-5c0.3-0.3,0.5-0.4,0.7-0.2
		c0.2,0.1,0.3,0.3,0.3,0.4c0,0.1,0,0.3-0.1,0.5c-1.4,2.4-4.4,5.2-8.9,8.5c-3,2.5-5.6,3.7-7.6,3.7c-3.2,0-4.8-2.7-4.8-8.2
		c0-1,0.1-2.5,0.3-4.5c0.2-1.9,1.7-7.9,4.5-17.9c0.2-0.8,1.2-1.1,3.2-1.1c1.9,0,2.9,0.5,2.9,1.6c0,1.1-0.4,2.5-1.1,4.2
		c-0.7,1.7-1.5,2.7-2.5,2.9c-0.5,0.1-1,2.5-1.6,7.1C1111.7-91.4,1111.4-88.6,1111.4-87.7z M1122.3-123.6c0.7,0,1,0.2,1,0.6
		c0,0.4-0.6,1.3-1.7,2.6c-2.5,3-4.9,3.6-7.2,1.7c-0.4-0.3-0.4-0.6-0.1-0.8C1117.5-122.2,1120.2-123.6,1122.3-123.6z"/>
	<path fill="#00FF00" d="M1143.5-114.4c6.9,0,10.3,0.4,10.3,1.3c0,0.2-1.1,0.4-3.4,0.7c-7.3,0.8-11.2,1.2-11.9,1.4
		c-4.6,11.3-6.9,19.4-6.9,24.2c0,1.5,0.3,2.6,0.9,3.3c0.6,0.7,1.3,1,2.1,0.9c0.8-0.1,1.5-0.2,2-0.3c0.5-0.1,1.3-0.4,2.4-0.9
		c1.1-0.5,2-0.9,2.6-1.2c1.6-0.8,4.7-2.9,9.2-6.4c1.6-1.1,2.4-1.4,2.5-0.7c0,1.2-2.5,3.6-7.6,7.2c-5,3.6-9.2,5.4-12.4,5.4
		c-0.1,0-0.2,0-0.3,0c-2.9-0.2-4.8-1-5.7-2.4c-0.4-0.8-0.6-1.9-0.6-3.4c0-1.5,0.2-3.3,0.5-5.4c0.3-2.1,1.1-4.8,2.2-8.1
		c1.1-3.3,2.1-6.1,3-8.5c0.9-2.4,1.3-3.5,1.2-3.5c-1,0-4.5,0.4-10.5,1.3c-0.5,0.1-0.7-0.4-0.7-1.5c0-1.1,0.5-1.8,1.5-2.2
		c1-0.4,4.5-0.7,10.7-1c2.9-10,5.1-16.4,6.5-19.4c0.3-0.7,0.7-1,1.3-1s1.4,0.7,2.4,2c1,1.3,1.6,2.3,1.6,3c0,0.7-0.1,1.2-0.3,1.6
		l-6.9,13.9C1140.7-114.4,1142.1-114.4,1143.5-114.4z"/>
	<path fill="#00FF00" d="M1167.1-114.4c6.9,0,10.3,0.4,10.3,1.3c0,0.2-1.1,0.4-3.4,0.7c-7.3,0.8-11.2,1.2-11.9,1.4
		c-4.6,11.3-6.9,19.4-6.9,24.2c0,1.5,0.3,2.6,0.9,3.3c0.6,0.7,1.3,1,2.1,0.9c0.8-0.1,1.5-0.2,2-0.3c0.5-0.1,1.3-0.4,2.4-0.9
		c1.1-0.5,2-0.9,2.6-1.2c1.6-0.8,4.7-2.9,9.2-6.4c1.6-1.1,2.4-1.4,2.5-0.7c0,1.2-2.5,3.6-7.6,7.2c-5,3.6-9.2,5.4-12.4,5.4
		c-0.1,0-0.2,0-0.3,0c-2.9-0.2-4.8-1-5.7-2.4c-0.4-0.8-0.6-1.9-0.6-3.4c0-1.5,0.2-3.3,0.5-5.4c0.3-2.1,1.1-4.8,2.2-8.1
		c1.1-3.3,2.1-6.1,3-8.5c0.9-2.4,1.3-3.5,1.2-3.5c-1,0-4.5,0.4-10.5,1.3c-0.5,0.1-0.7-0.4-0.7-1.5c0-1.1,0.5-1.8,1.5-2.2
		c1-0.4,4.5-0.7,10.7-1c2.9-10,5.1-16.4,6.5-19.4c0.3-0.7,0.7-1,1.3-1s1.4,0.7,2.4,2c1,1.3,1.6,2.3,1.6,3c0,0.7-0.1,1.2-0.3,1.6
		l-6.9,13.9C1164.3-114.4,1165.7-114.4,1167.1-114.4z"/>
	<path fill="#00FF00" d="M1202-109.6c0,2.6-0.8,7.7-2.5,15.1c-1.7,7.4-3.2,12.5-4.4,15.3c2.9-0.7,4.5-1.8,4.8-3.4
		c0.1-0.6,0.3-1,0.6-1.3c0.3-0.3,0.6-0.3,0.8-0.1c0.2,0.2,0.3,0.7,0.2,1.5c-0.4,2.7-2.9,4.7-7.6,5.8c-2.8,7.8-6.8,15.5-11.9,23
		c-9.2,13.6-19.3,21.2-30.2,23c-1.1,0.2-2.7,0.3-4.7,0.3c-2,0-4.3-0.6-6.9-1.8c-3.6-1.8-6-4.7-7.3-8.6c-0.5-1.6-0.7-3.3-0.7-5
		c0-1.7,0.4-3.6,1.3-5.6c1.4-3.4,3.9-6.3,7.3-8.6c8.5-5.7,24.9-11.8,49.3-18.1c1.6-3.8,3.5-12.3,5.7-25.6c-3.9,7-8,13-12.3,18.1
		c-0.6,2-1.7,3.6-3.5,4.9c-1.8,1.3-2.6,1-2.5-0.9c0-0.5,0.4-2.4,1.1-5.9c0.8-3.4,1.1-7,1.1-10.7c0-3.7-1-5.6-3-5.6
		c-0.9,0-1.9,0.3-3,1c-1,0.7-1.6,0.7-1.8,0.2c-0.1-0.5,0.6-1.4,2.3-2.7s3.2-1.9,4.5-1.9c1.3,0,2.5,0.3,3.5,0.9c1,0.6,1.7,2,1.9,4.2
		c0.2,2.2,0.4,3.9,0.4,5.2c0,1.3-0.1,2.9-0.4,4.6c-0.2,1.7-0.4,2.7-0.6,2.9c0,0.7,4.2-4.9,12.6-16.7c0.5-3.1,1.8-4.7,4-4.7
		C1201.4-110.7,1202-110.4,1202-109.6z M1164.4-67.3c-10.3,4.2-17.3,7.6-21.1,10.1c-3.8,2.5-6.3,4.8-7.6,6.9c-1.3,2-2,3.7-2,4.9
		c0,4.9,2.5,8.2,7.6,9.8c2.6,0.8,4.9,1.1,6.8,1.1c1.9,0,3.8-0.1,5.8-0.4c2-0.2,4.2-0.9,6.7-1.9c2.5-1,4.7-2.1,6.5-3.3
		c1.8-1.2,3.7-2.8,5.5-4.9c1.8-2.1,3.3-3.9,4.5-5.4c1.1-1.5,2.4-3.7,3.8-6.4c1.4-2.8,2.4-4.9,3.1-6.2c0.7-1.4,1.6-3.6,2.8-6.6
		c1.2-3.1,2.1-5.1,2.5-6C1183-74.3,1174.7-71.5,1164.4-67.3z"/>
</g>
<g>
	<path fill="#00FF00" d="M876.6-116c2.9,0,4.4,1.7,4.4,5.1c0,2-0.4,4.9-1.3,8.8c-0.8,3.9-2.5,7.8-5.1,11.8c-2.5,4-6.2,7.1-11,9.3
		c-2.9,1.2-5.4,1.8-7.3,1.8c-5.7,0-8.6-2-8.6-6.1c0-1.8,0.7-3.3,2.1-4.7c0.7,6.1,3,9.2,6.9,9.2c0.3,0,0.6,0,0.8,0
		c2.4-0.4,4.9-1.9,7.6-4.5c2.7-2.6,5-6,7-10.2c2-4.2,3-8.2,3-11.9c0-3.2-0.6-4.5-1.7-4c-4.3,2.2-8.1,5.7-11.2,10.5
		c-3.1,4.9-4.7,9.7-4.8,14.5c0,0.6-0.3,0.8-0.8,0.8s-1.3-0.5-2.3-1.5c-0.9-1-1.5-1.5-1.7-1.6c0-4.4,1.1-11.4,3.4-20.8
		c2.3-9.5,5.4-18,9.4-25.7c4-7.7,8.5-13.1,13.5-16.2c0.5-0.3,1.6-0.7,3.4-1.1c1.8-0.5,2.9-0.7,3.4-0.7c0.5,0,0.8,0,0.8,0.1
		c2.6,0.7,4.6,2,5.9,4.1c0.5,0.7,0.7,1.1,0.7,1.4s-0.2,0.4-0.6,0.4c-0.4,0-0.7-0.1-1-0.4c-2.1-1.7-4.5-2.5-7.3-2.5
		c-0.1,0-0.2,0-0.4,0c-4.4,0.1-9.7,7.3-15.8,21.6c-6.1,14.3-9.4,24.5-9.8,30.7c1.3-2.3,3.8-5.4,7.5-9.5c3.7-4.1,6.1-6.5,7.1-7.4
		C874-115.5,875.2-116,876.6-116z"/>
	<path fill="#00FF00" d="M916.6-105.7l6.6-0.7c0.3,0,0.4,0.1,0.4,0.3c0,0.2-0.1,0.4-0.4,0.7l-1.1,1c-2.3,1-4.6,1.6-6.9,1.6
		c-2.4,0-3.9-0.2-4.7-0.6c0,0.2,0,0.7,0,1.6s-0.4,2.7-1.3,5.5c-0.9,2.8-2.2,5.8-4,8.9c-1.8,3.1-3.7,5.4-5.8,6.8
		c-2.1,1.4-3.6,2.1-4.6,2.1s-2-0.1-3.1-0.4c-1.1-0.3-2.3-1.3-3.6-3c-1.5-1.7-2.3-4.1-2.3-7.1c0-3.1,0.5-6.2,1.4-9.4
		c3.5-10.6,7.8-16.1,12.9-16.5c0.7-0.8,1.5-1.1,2.5-1.1c1,0,2.3,0.5,3.9,1.4c2.8,1.8,4.4,4,4.7,6.6
		C912.4-106.5,914.3-105.7,916.6-105.7z M896.4-104.7c-1.9,3.3-3.3,6.6-4.2,9.9c-0.9,3.3-1.3,6.1-1.3,8.4c0,2.3,0.8,3.9,2.5,4.7
		c0.5,0.2,1,0.3,1.6,0.3c2.3,0,4.8-2.2,7.6-6.6c1.6-2.5,2.9-5.4,3.8-8.5c0.9-3.1,1.4-5.1,1.4-5.9c0-0.8,0-1.4-0.1-1.7
		c-1.8-0.3-3.2-0.9-4.2-2c-1-1-1.6-2-1.7-2.8l-0.1-1.3C900.1-109.8,898.3-108,896.4-104.7z"/>
	<path fill="#00FF00" d="M938.3-92.6c0,5.9,1,8.9,3.1,8.9c2.8,0,6.7-3.1,11.6-9.2c0.9-1.1,1.5-1.8,1.6-1.9c0.1-0.1,0.3,0.1,0.5,0.6
		l0.1,0.3c-0.8,1.9-3,4.7-6.9,8.5c-3.8,3.8-7,5.7-9.7,5.7c-0.9,0-1.8-0.2-2.7-0.7c-2.4-1.1-3.5-5.3-3.5-12.4c0-1.1,0.1-2.7,0.3-4.7
		c0.2-2,0.4-3.1,0.6-3.3c0-0.1-0.1,0-0.4,0.2c-0.2,0.2-0.6,0.7-1.1,1.3c-0.5,0.6-1.1,1.2-1.6,1.9c-0.6,0.7-1.2,1.5-2,2.5
		c-0.8,1-1.5,1.9-2.1,2.7c-1.7,1.9-3,3.6-4,5.1c-0.3,3.4-1.5,5.7-3.7,7.1c-0.5,0.3-0.8,0.4-1.1,0.4c-0.2,0-0.4-0.9-0.4-2.6
		c0-1.7,0.6-6.2,1.8-13.5c1.2-7.3,2.4-12.2,3.4-15c-2.9,0.8-4.5,1.9-4.7,3.5c-0.2,1.1-0.5,1.7-0.9,1.6c-0.4,0-0.6-0.4-0.6-1.2
		c0-2.9,2.4-5.1,7.2-6.5c2.4-8,6-15.9,10.7-23.7c4.7-7.8,9.9-13.9,15.7-18.2c5.7-4.5,11.6-6.8,17.5-6.8c2.5,0,5,0.5,7.5,1.6
		c3.7,1.6,6.3,4.3,7.8,8.1c0.7,1.7,1,3.4,1,5.2c0,5.5-2.7,10.2-8.1,14.3c-3.8,2.9-8.8,5.8-15.1,8.7c-6.3,2.9-11.5,5-15.5,6.4
		c-4,1.4-9.9,3.3-17.6,5.7c-1.5,4.1-3.1,11.6-4.8,22.6c1.3-2,3.4-4.8,6.2-8.4c2.8-3.6,4.7-6,5.5-7.1c0.5-2.1,1.6-3.7,3.3-5
		c1.7-1.3,2.6-1,2.6,0.8c0,0.5-0.3,2.6-0.9,6.5C938.6-99.1,938.3-95.7,938.3-92.6z M981.2-151c-1.8-4.7-6.3-7.1-13.4-7.1
		c-6.7,0-13.2,2.3-19.6,6.9c-2.8,2-6,5.6-9.5,10.7c-2,3-3.7,6.3-5,9.8c-1.4,3.5-2.6,6.8-3.7,9.9c-1.1,3.1-1.8,5.1-2.2,6
		c6.3-1.8,14.5-5,24.5-9.7c10-4.7,17.5-8.9,22.3-12.6c4.8-3.7,7.2-7.4,7.2-11C981.8-148.9,981.6-150,981.2-151z"/>
	<path fill="#00FF00" d="M984.1-105.7l6.6-0.7c0.3,0,0.4,0.1,0.4,0.3c0,0.2-0.1,0.4-0.4,0.7l-1.1,1c-2.3,1-4.6,1.6-6.9,1.6
		c-2.4,0-3.9-0.2-4.7-0.6c0,0.2,0,0.7,0,1.6s-0.4,2.7-1.3,5.5c-0.9,2.8-2.2,5.8-4,8.9c-1.8,3.1-3.7,5.4-5.8,6.8
		c-2.1,1.4-3.6,2.1-4.6,2.1s-2-0.1-3.1-0.4c-1.1-0.3-2.3-1.3-3.6-3c-1.5-1.7-2.3-4.1-2.3-7.1c0-3.1,0.5-6.2,1.4-9.4
		c3.5-10.6,7.8-16.1,12.9-16.5c0.7-0.8,1.5-1.1,2.5-1.1c1,0,2.3,0.5,3.9,1.4c2.8,1.8,4.4,4,4.7,6.6
		C979.9-106.5,981.7-105.7,984.1-105.7z M963.8-104.7c-1.9,3.3-3.3,6.6-4.2,9.9c-0.9,3.3-1.3,6.1-1.3,8.4c0,2.3,0.8,3.9,2.5,4.7
		c0.5,0.2,1,0.3,1.6,0.3c2.3,0,4.8-2.2,7.6-6.6c1.6-2.5,2.9-5.4,3.8-8.5c0.9-3.1,1.4-5.1,1.4-5.9c0-0.8,0-1.4-0.1-1.7
		c-1.8-0.3-3.2-0.9-4.2-2c-1-1-1.6-2-1.7-2.8l-0.1-1.3C967.5-109.8,965.7-108,963.8-104.7z"/>
</g>
<path fill="#00FF00" d="M1078-79.9c0,0-11.2-8-17.2-18.8s1.2,6.3,1.2,6.3S1065.4-85.6,1078-79.9z"/>
<path fill="#00FF00" d="M1007.2,24.9c0,0-72-0.8-102.4-37.3c-2.3-4-15.2-21.9,4.7-39.2c6.5-5.1,16-1,19.4,10.3
	c-3-19.4-11.6-20.3-20.3-13.4c-68.3,64.4,114.8,88.6,114.8,88.6"/>
<path fill="#00FF00" d="M1042.1-229.3c0,0,11.7-27.6,14.4-21.7c5.7,12.4,1,35.5,8.9,51.2c-51,31.3-80.7,92.4-83.2,145.8
	c0,109.6,82.2,110.3,82.2,0c0-102.4-83.2-144.9-83.2-144.9c7-7.5,5.5-36.2,8.3-52.1c1.1-5.9,11.9,15.1,14.5,20.4
	c0.4,0.8,0.6,1.2,0.6,1.2l-1.7,1.2c0,0-11.5-25.9-12.8-19.1c-2.9,16.2,1.5,34.8-3.9,47.7c0,0,78.7,42.2,78.9,146.7
	c0.2,116.7-83.7,115.9-83.8,0c2.6-54.4,28.8-112.7,79-147.9c-5-13.5,1.2-34.3-4.6-47c-2.8-6-12.1,19.6-12.1,19.6L1042.1-229.3z"/>
<path fill="#808080" d="M172.5,221.2"/>
<path fill="#BFC0B5" d="M350.4,225.4c0,0,24.1,1.1,28.8-8.2c4.7-9.4-2.9-6.4-2.9-6.4s-3.9,11-27.2,9.8L350.4,225.4z"/>
<text transform="matrix(1 0 0 1 -132.8624 102.8701)" font-family="'MyriadPro-Regular'" font-size="12">#v</text>
</svg>
