<?xml version="1.0"?>
<!--Icons from directory ""-->
<svg xmlns="http://www.w3.org/2000/svg" width="32" height="32" viewBox="0 0 32 32"><svg xmlns:xlink="http://www.w3.org/1999/xlink" id="etsy-icon" xml:space="preserve" viewBox="0 0 100 100" version="1.1" y="0" x="0px" enable-background="new 0 0 100 100" width="32" height="32"><path d="m93.6 1.6h-86.4c-2.8 0-5 2.2-5 5v86.4c0 2.8 2.2 5 5 5h86.4c2.8 0 5-2.2 5-5v-86.4c0-2.8-2.3-5-5-5zm-24.7 72.8c-1.5 0.9-3.1-0.1-4.8-0.3-4.4-0.4-9.9 0-15.3 0-5.2 0-10.6-0.2-15.1 0-2.3 0.1-4.8 0.9-6.5-0.3-0.5-4 4.4-1.9 6.2-3.8 0.3-0.3 1.2-2.6 1.3-4 0.5-4.1 0-10.8 0-17.5 0-6.3 0.4-12.9 0-17.2-0.2-1.6-0.9-4-1.3-4.6-1.5-1.7-5.7-0.4-5.1-3.5 0.8-1.4 2.9-0.8 4-0.8 9.8 0 23.7 0.6 32.8-0.5 0.9-0.1 2.3-0.8 3.2 0.5 0.3 1.3-0.4 2.5-0.5 4.3-0.1 2.4 1.3 7.7-1.6 7-1.4-0.3-0.8-3.2-1.6-4.6-1.5-2.5-9.3-2.9-14.3-3-2.8 0-7 0.1-8.9 1.9-0.4 5-0.5 11.7 0 16.7 3.4 0.6 9.7 1 13.7 0.5 1-0.1 2.5-0.3 3.2-0.8 2.2-1.5 0.6-4.3 2.7-5.9 2.7 0 1.7 2.9 1.6 5.4-0.1 1.8-0.1 4.1 0 5.6 0.1 2.5 1.2 5.1-0.8 5.6-2.9-1-1.5-4.1-4-5.6-3.8-2.3-10.8-0.1-16.1-0.5-0.9 2.7-0.5 6.1-0.5 9.7 0 3.1-0.7 7 0.5 9.4 1.5 2.9 8.9 2.5 13.2 2.1 4.9-0.4 10.1-1.4 11.6-4.3 1.2-2.4-0.2-4.2 1.9-6.2 4.9 0.9 1.5 5.4 1.1 9.1-0.3 2.1 0.5 4.1-0.6 5.6z"/></svg></svg>
